<?xml version="1.0" encoding="utf-8"?>
<!-- Generator: Adobe Illustrator 23.1.0, SVG Export Plug-In . SVG Version: 6.00 Build 0)  -->
<svg version="1.1" id="Capa_1" xmlns="http://www.w3.org/2000/svg" xmlns:xlink="http://www.w3.org/1999/xlink" x="0px" y="0px"
	 viewBox="0 0 32 32" style="enable-background:new 0 0 32 32;" xml:space="preserve">
<style type="text/css">
	.st0{fill:#FFFFFF;}
	.st1{fill:#39BEE2;}
	.st2{fill:#00729A;}
</style>
<g>
	<path class="st1" d="M28.33,16.82c-0.31-1.22-0.72-2.4-1.52-3.52c-0.12,0.2-0.18,0.26-0.18,0.31c0.01,0.27,0.02,0.54,0.04,0.81
		c0.12,2.34-0.44,4.47-2.16,6.13c-1.63,1.57-3.67,2.29-5.92,2.34c-2.51,0.05-5.03,0.02-7.54,0.01c-0.7,0-1.29,0.22-1.57,0.85
		c-0.31,0.7-0.26,1.42,0.32,2.02c1.63,1.67,3.26,3.33,4.88,5c0.27,0.28,0.52,0.39,0.95,0.27c2.95-0.83,5.78-1.97,8.26-3.79
		C27.43,24.67,29.49,21.41,28.33,16.82z"/>
	<circle class="st1" cx="11.95" cy="15.95" r="1.43"/>
	<circle class="st1" cx="20.38" cy="15.95" r="1.43"/>
	<path class="st2" d="M13.4,9.12c0.27-0.01,0.54-0.01,0.81-0.01V7.63c0-0.78,0.63-1.41,1.41-1.41h0.28c0.78,0,1.41,0.63,1.41,1.41
		v1.46c1.21,0,2.42,0.01,3.63,0.02c0.7,0,1.29-0.22,1.57-0.85c0.31-0.7,0.26-1.42-0.32-2.02c-1.63-1.67-3.26-3.33-4.88-5
		c-0.27-0.28-0.52-0.39-0.95-0.27c-2.95,0.83-5.78,1.97-8.26,3.79c-3.52,2.57-5.58,5.83-4.42,10.42c0.31,1.22,0.72,2.4,1.52,3.52
		c0.12-0.2,0.18-0.26,0.18-0.31c-0.01-0.27-0.02-0.54-0.04-0.81c-0.12-2.34,0.44-4.47,2.16-6.13C9.11,9.88,11.15,9.16,13.4,9.12z"/>
</g>
</svg>
